<svg width="800" height="500" xmlns="http://www.w3.org/2000/svg">
  <defs>
    <!-- Градиент для фона -->
    <linearGradient id="bgGradient" x1="0%" y1="0%" x2="0%" y2="100%">
      <stop offset="0%" style="stop-color:#0a0b0d;stop-opacity:1" />
      <stop offset="100%" style="stop-color:#12141a;stop-opacity:1" />
    </linearGradient>
    
    <!-- Градиенты для кластеров -->
    <radialGradient id="cluster1Gradient" cx="50%" cy="50%">
      <stop offset="0%" style="stop-color:#4a9eff;stop-opacity:1" />
      <stop offset="100%" style="stop-color:#2a5f9e;stop-opacity:0.8" />
    </radialGradient>
    
    <radialGradient id="cluster2Gradient" cx="50%" cy="50%">
      <stop offset="0%" style="stop-color:#43b581;stop-opacity:1" />
      <stop offset="100%" style="stop-color:#2d7a4a;stop-opacity:0.8" />
    </radialGradient>
    
    <radialGradient id="cluster3Gradient" cx="50%" cy="50%">
      <stop offset="0%" style="stop-color:#a78bfa;stop-opacity:1" />
      <stop offset="100%" style="stop-color:#6d28d9;stop-opacity:0.8" />
    </radialGradient>
    
    <radialGradient id="cluster4Gradient" cx="50%" cy="50%">
      <stop offset="0%" style="stop-color:#ffa500;stop-opacity:1" />
      <stop offset="100%" style="stop-color:#cc8400;stop-opacity:0.8" />
    </radialGradient>
    
    <radialGradient id="cluster5Gradient" cx="50%" cy="50%">
      <stop offset="0%" style="stop-color:#00d4ff;stop-opacity:1" />
      <stop offset="100%" style="stop-color:#0099cc;stop-opacity:0.8" />
    </radialGradient>
    
    <radialGradient id="cluster6Gradient" cx="50%" cy="50%">
      <stop offset="0%" style="stop-color:#ff6b6b;stop-opacity:1" />
      <stop offset="100%" style="stop-color:#cc5555;stop-opacity:0.8" />
    </radialGradient>
    
    <radialGradient id="cluster7Gradient" cx="50%" cy="50%">
      <stop offset="0%" style="stop-color:#ffd93d;stop-opacity:1" />
      <stop offset="100%" style="stop-color:#ccb030;stop-opacity:0.8" />
    </radialGradient>
    
    <!-- Свечение для точек -->
    <filter id="pointGlow">
      <feGaussianBlur stdDeviation="2" result="coloredBlur"/>
      <feMerge>
        <feMergeNode in="coloredBlur"/>
        <feMergeNode in="SourceGraphic"/>
      </feMerge>
    </filter>
  </defs>
  
  <!-- Фон -->
  <rect width="800" height="500" fill="url(#bgGradient)"/>
  
  <!-- Заголовок -->
  <text x="400" y="40" font-family="-apple-system, BlinkMacSystemFont, 'Segoe UI', Roboto, sans-serif" 
        font-size="24" font-weight="600" fill="#e4e6eb" text-anchor="middle">
    Карта кластеров поставщиков
  </text>
  
  <!-- Кластер 1 (синий) -->
  <g id="cluster1">
    <circle cx="220" cy="180" r="8" fill="url(#cluster1Gradient)" filter="url(#pointGlow)"/>
    <circle cx="240" cy="200" r="6" fill="url(#cluster1Gradient)" filter="url(#pointGlow)"/>
    <circle cx="200" cy="190" r="7" fill="url(#cluster1Gradient)" filter="url(#pointGlow)"/>
    <circle cx="230" cy="160" r="6" fill="url(#cluster1Gradient)" filter="url(#pointGlow)"/>
    <circle cx="210" cy="210" r="7" fill="url(#cluster1Gradient)" filter="url(#pointGlow)"/>
    <circle cx="250" cy="175" r="6" fill="url(#cluster1Gradient)" filter="url(#pointGlow)"/>
    <circle cx="190" cy="200" r="7" fill="url(#cluster1Gradient)" filter="url(#pointGlow)"/>
    <circle cx="225" cy="195" r="6" fill="url(#cluster1Gradient)" filter="url(#pointGlow)"/>
    <circle cx="215" cy="185" r="5" fill="url(#cluster1Gradient)" filter="url(#pointGlow)"/>
    <circle cx="235" cy="190" r="6" fill="url(#cluster1Gradient)" filter="url(#pointGlow)"/>
    <circle cx="205" cy="175" r="6" fill="url(#cluster1Gradient)" filter="url(#pointGlow)"/>
    <circle cx="245" cy="195" r="5" fill="url(#cluster1Gradient)" filter="url(#pointGlow)"/>
    <circle cx="195" cy="185" r="6" fill="url(#cluster1Gradient)" filter="url(#pointGlow)"/>
    <circle cx="220" cy="200" r="5" fill="url(#cluster1Gradient)" filter="url(#pointGlow)"/>
    <circle cx="235" cy="165" r="6" fill="url(#cluster1Gradient)" filter="url(#pointGlow)"/>
    <circle cx="210" cy="195" r="5" fill="url(#cluster1Gradient)" filter="url(#pointGlow)"/>
    <circle cx="240" cy="185" r="6" fill="url(#cluster1Gradient)" filter="url(#pointGlow)"/>
    <circle cx="205" cy="205" r="5" fill="url(#cluster1Gradient)" filter="url(#pointGlow)"/>
    <circle cx="230" cy="205" r="6" fill="url(#cluster1Gradient)" filter="url(#pointGlow)"/>
    <circle cx="215" cy="170" r="5" fill="url(#cluster1Gradient)" filter="url(#pointGlow)"/>
  </g>
  
  <!-- Кластер 2 (зеленый) -->
  <g id="cluster2">
    <circle cx="470" cy="250" r="8" fill="url(#cluster2Gradient)" filter="url(#pointGlow)"/>
    <circle cx="490" cy="270" r="7" fill="url(#cluster2Gradient)" filter="url(#pointGlow)"/>
    <circle cx="450" cy="260" r="6" fill="url(#cluster2Gradient)" filter="url(#pointGlow)"/>
    <circle cx="480" cy="230" r="7" fill="url(#cluster2Gradient)" filter="url(#pointGlow)"/>
    <circle cx="460" cy="280" r="6" fill="url(#cluster2Gradient)" filter="url(#pointGlow)"/>
    <circle cx="500" cy="245" r="7" fill="url(#cluster2Gradient)" filter="url(#pointGlow)"/>
    <circle cx="440" cy="265" r="6" fill="url(#cluster2Gradient)" filter="url(#pointGlow)"/>
    <circle cx="475" cy="255" r="7" fill="url(#cluster2Gradient)" filter="url(#pointGlow)"/>
    <circle cx="485" cy="265" r="6" fill="url(#cluster2Gradient)" filter="url(#pointGlow)"/>
    <circle cx="465" cy="260" r="5" fill="url(#cluster2Gradient)" filter="url(#pointGlow)"/>
    <circle cx="495" cy="260" r="6" fill="url(#cluster2Gradient)" filter="url(#pointGlow)"/>
    <circle cx="445" cy="250" r="6" fill="url(#cluster2Gradient)" filter="url(#pointGlow)"/>
    <circle cx="505" cy="255" r="5" fill="url(#cluster2Gradient)" filter="url(#pointGlow)"/>
    <circle cx="455" cy="270" r="6" fill="url(#cluster2Gradient)" filter="url(#pointGlow)"/>
    <circle cx="470" cy="270" r="5" fill="url(#cluster2Gradient)" filter="url(#pointGlow)"/>
    <circle cx="490" cy="240" r="6" fill="url(#cluster2Gradient)" filter="url(#pointGlow)"/>
    <circle cx="460" cy="245" r="5" fill="url(#cluster2Gradient)" filter="url(#pointGlow)"/>
    <circle cx="485" cy="250" r="6" fill="url(#cluster2Gradient)" filter="url(#pointGlow)"/>
    <circle cx="445" cy="275" r="5" fill="url(#cluster2Gradient)" filter="url(#pointGlow)"/>
    <circle cx="480" cy="275" r="6" fill="url(#cluster2Gradient)" filter="url(#pointGlow)"/>
    <circle cx="465" cy="240" r="5" fill="url(#cluster2Gradient)" filter="url(#pointGlow)"/>
  </g>
  
  <!-- Кластер 3 (фиолетовый) -->
  <g id="cluster3">
    <circle cx="380" cy="350" r="8" fill="url(#cluster3Gradient)" filter="url(#pointGlow)"/>
    <circle cx="400" cy="370" r="7" fill="url(#cluster3Gradient)" filter="url(#pointGlow)"/>
    <circle cx="360" cy="360" r="6" fill="url(#cluster3Gradient)" filter="url(#pointGlow)"/>
    <circle cx="390" cy="330" r="7" fill="url(#cluster3Gradient)" filter="url(#pointGlow)"/>
    <circle cx="370" cy="380" r="6" fill="url(#cluster3Gradient)" filter="url(#pointGlow)"/>
    <circle cx="410" cy="345" r="7" fill="url(#cluster3Gradient)" filter="url(#pointGlow)"/>
    <circle cx="350" cy="365" r="6" fill="url(#cluster3Gradient)" filter="url(#pointGlow)"/>
    <circle cx="375" cy="360" r="5" fill="url(#cluster3Gradient)" filter="url(#pointGlow)"/>
    <circle cx="395" cy="360" r="6" fill="url(#cluster3Gradient)" filter="url(#pointGlow)"/>
    <circle cx="365" cy="350" r="6" fill="url(#cluster3Gradient)" filter="url(#pointGlow)"/>
    <circle cx="405" cy="360" r="5" fill="url(#cluster3Gradient)" filter="url(#pointGlow)"/>
    <circle cx="355" cy="355" r="6" fill="url(#cluster3Gradient)" filter="url(#pointGlow)"/>
    <circle cx="385" cy="370" r="5" fill="url(#cluster3Gradient)" filter="url(#pointGlow)"/>
    <circle cx="400" cy="340" r="6" fill="url(#cluster3Gradient)" filter="url(#pointGlow)"/>
    <circle cx="370" cy="340" r="5" fill="url(#cluster3Gradient)" filter="url(#pointGlow)"/>
    <circle cx="390" cy="365" r="6" fill="url(#cluster3Gradient)" filter="url(#pointGlow)"/>
    <circle cx="360" cy="370" r="5" fill="url(#cluster3Gradient)" filter="url(#pointGlow)"/>
    <circle cx="410" cy="370" r="6" fill="url(#cluster3Gradient)" filter="url(#pointGlow)"/>
    <circle cx="375" cy="340" r="5" fill="url(#cluster3Gradient)" filter="url(#pointGlow)"/>
    <circle cx="395" cy="380" r="6" fill="url(#cluster3Gradient)" filter="url(#pointGlow)"/>
  </g>
  
  <!-- Кластер 4 (оранжевый) -->
  <g id="cluster4">
    <circle cx="600" cy="150" r="8" fill="url(#cluster4Gradient)" filter="url(#pointGlow)"/>
    <circle cx="620" cy="170" r="7" fill="url(#cluster4Gradient)" filter="url(#pointGlow)"/>
    <circle cx="580" cy="160" r="6" fill="url(#cluster4Gradient)" filter="url(#pointGlow)"/>
    <circle cx="610" cy="130" r="7" fill="url(#cluster4Gradient)" filter="url(#pointGlow)"/>
    <circle cx="590" cy="180" r="6" fill="url(#cluster4Gradient)" filter="url(#pointGlow)"/>
    <circle cx="630" cy="145" r="7" fill="url(#cluster4Gradient)" filter="url(#pointGlow)"/>
    <circle cx="570" cy="165" r="6" fill="url(#cluster4Gradient)" filter="url(#pointGlow)"/>
    <circle cx="605" cy="155" r="7" fill="url(#cluster4Gradient)" filter="url(#pointGlow)"/>
    <circle cx="595" cy="160" r="5" fill="url(#cluster4Gradient)" filter="url(#pointGlow)"/>
    <circle cx="615" cy="160" r="6" fill="url(#cluster4Gradient)" filter="url(#pointGlow)"/>
    <circle cx="585" cy="150" r="6" fill="url(#cluster4Gradient)" filter="url(#pointGlow)"/>
    <circle cx="625" cy="160" r="5" fill="url(#cluster4Gradient)" filter="url(#pointGlow)"/>
    <circle cx="575" cy="155" r="6" fill="url(#cluster4Gradient)" filter="url(#pointGlow)"/>
    <circle cx="600" cy="170" r="5" fill="url(#cluster4Gradient)" filter="url(#pointGlow)"/>
    <circle cx="620" cy="140" r="6" fill="url(#cluster4Gradient)" filter="url(#pointGlow)"/>
    <circle cx="590" cy="140" r="5" fill="url(#cluster4Gradient)" filter="url(#pointGlow)"/>
    <circle cx="615" cy="150" r="6" fill="url(#cluster4Gradient)" filter="url(#pointGlow)"/>
    <circle cx="575" cy="175" r="5" fill="url(#cluster4Gradient)" filter="url(#pointGlow)"/>
    <circle cx="610" cy="175" r="6" fill="url(#cluster4Gradient)" filter="url(#pointGlow)"/>
    <circle cx="595" cy="140" r="5" fill="url(#cluster4Gradient)" filter="url(#pointGlow)"/>
  </g>
  
  <!-- Кластер 5 (голубой) -->
  <g id="cluster5">
    <circle cx="150" cy="320" r="8" fill="url(#cluster5Gradient)" filter="url(#pointGlow)"/>
    <circle cx="170" cy="340" r="7" fill="url(#cluster5Gradient)" filter="url(#pointGlow)"/>
    <circle cx="130" cy="330" r="6" fill="url(#cluster5Gradient)" filter="url(#pointGlow)"/>
    <circle cx="160" cy="300" r="7" fill="url(#cluster5Gradient)" filter="url(#pointGlow)"/>
    <circle cx="140" cy="350" r="6" fill="url(#cluster5Gradient)" filter="url(#pointGlow)"/>
    <circle cx="180" cy="315" r="7" fill="url(#cluster5Gradient)" filter="url(#pointGlow)"/>
    <circle cx="120" cy="335" r="6" fill="url(#cluster5Gradient)" filter="url(#pointGlow)"/>
    <circle cx="145" cy="330" r="5" fill="url(#cluster5Gradient)" filter="url(#pointGlow)"/>
    <circle cx="165" cy="330" r="6" fill="url(#cluster5Gradient)" filter="url(#pointGlow)"/>
    <circle cx="135" cy="320" r="6" fill="url(#cluster5Gradient)" filter="url(#pointGlow)"/>
    <circle cx="175" cy="330" r="5" fill="url(#cluster5Gradient)" filter="url(#pointGlow)"/>
    <circle cx="125" cy="325" r="6" fill="url(#cluster5Gradient)" filter="url(#pointGlow)"/>
    <circle cx="155" cy="340" r="5" fill="url(#cluster5Gradient)" filter="url(#pointGlow)"/>
    <circle cx="170" cy="310" r="6" fill="url(#cluster5Gradient)" filter="url(#pointGlow)"/>
    <circle cx="140" cy="310" r="5" fill="url(#cluster5Gradient)" filter="url(#pointGlow)"/>
    <circle cx="160" cy="335" r="6" fill="url(#cluster5Gradient)" filter="url(#pointGlow)"/>
    <circle cx="130" cy="340" r="5" fill="url(#cluster5Gradient)" filter="url(#pointGlow)"/>
    <circle cx="180" cy="340" r="6" fill="url(#cluster5Gradient)" filter="url(#pointGlow)"/>
    <circle cx="145" cy="310" r="5" fill="url(#cluster5Gradient)" filter="url(#pointGlow)"/>
    <circle cx="165" cy="350" r="6" fill="url(#cluster5Gradient)" filter="url(#pointGlow)"/>
  </g>
  
  <!-- Кластер 6 (красный) -->
  <g id="cluster6">
    <circle cx="650" cy="350" r="8" fill="url(#cluster6Gradient)" filter="url(#pointGlow)"/>
    <circle cx="670" cy="370" r="7" fill="url(#cluster6Gradient)" filter="url(#pointGlow)"/>
    <circle cx="630" cy="360" r="6" fill="url(#cluster6Gradient)" filter="url(#pointGlow)"/>
    <circle cx="660" cy="330" r="7" fill="url(#cluster6Gradient)" filter="url(#pointGlow)"/>
    <circle cx="640" cy="380" r="6" fill="url(#cluster6Gradient)" filter="url(#pointGlow)"/>
    <circle cx="680" cy="345" r="7" fill="url(#cluster6Gradient)" filter="url(#pointGlow)"/>
    <circle cx="620" cy="365" r="6" fill="url(#cluster6Gradient)" filter="url(#pointGlow)"/>
    <circle cx="645" cy="360" r="5" fill="url(#cluster6Gradient)" filter="url(#pointGlow)"/>
    <circle cx="665" cy="360" r="6" fill="url(#cluster6Gradient)" filter="url(#pointGlow)"/>
    <circle cx="635" cy="350" r="6" fill="url(#cluster6Gradient)" filter="url(#pointGlow)"/>
    <circle cx="675" cy="360" r="5" fill="url(#cluster6Gradient)" filter="url(#pointGlow)"/>
    <circle cx="625" cy="355" r="6" fill="url(#cluster6Gradient)" filter="url(#pointGlow)"/>
    <circle cx="655" cy="370" r="5" fill="url(#cluster6Gradient)" filter="url(#pointGlow)"/>
    <circle cx="670" cy="340" r="6" fill="url(#cluster6Gradient)" filter="url(#pointGlow)"/>
    <circle cx="640" cy="340" r="5" fill="url(#cluster6Gradient)" filter="url(#pointGlow)"/>
    <circle cx="660" cy="365" r="6" fill="url(#cluster6Gradient)" filter="url(#pointGlow)"/>
    <circle cx="630" cy="370" r="5" fill="url(#cluster6Gradient)" filter="url(#pointGlow)"/>
    <circle cx="680" cy="370" r="6" fill="url(#cluster6Gradient)" filter="url(#pointGlow)"/>
    <circle cx="645" cy="340" r="5" fill="url(#cluster6Gradient)" filter="url(#pointGlow)"/>
  </g>
  
  <!-- Кластер 7 (желтый) -->
  <g id="cluster7">
    <circle cx="320" cy="200" r="8" fill="url(#cluster7Gradient)" filter="url(#pointGlow)"/>
    <circle cx="340" cy="220" r="7" fill="url(#cluster7Gradient)" filter="url(#pointGlow)"/>
    <circle cx="300" cy="210" r="6" fill="url(#cluster7Gradient)" filter="url(#pointGlow)"/>
    <circle cx="330" cy="180" r="7" fill="url(#cluster7Gradient)" filter="url(#pointGlow)"/>
    <circle cx="310" cy="230" r="6" fill="url(#cluster7Gradient)" filter="url(#pointGlow)"/>
    <circle cx="350" cy="195" r="7" fill="url(#cluster7Gradient)" filter="url(#pointGlow)"/>
    <circle cx="290" cy="215" r="6" fill="url(#cluster7Gradient)" filter="url(#pointGlow)"/>
    <circle cx="315" cy="210" r="5" fill="url(#cluster7Gradient)" filter="url(#pointGlow)"/>
    <circle cx="335" cy="210" r="6" fill="url(#cluster7Gradient)" filter="url(#pointGlow)"/>
    <circle cx="305" cy="200" r="6" fill="url(#cluster7Gradient)" filter="url(#pointGlow)"/>
    <circle cx="345" cy="210" r="5" fill="url(#cluster7Gradient)" filter="url(#pointGlow)"/>
    <circle cx="295" cy="205" r="6" fill="url(#cluster7Gradient)" filter="url(#pointGlow)"/>
    <circle cx="325" cy="220" r="5" fill="url(#cluster7Gradient)" filter="url(#pointGlow)"/>
    <circle cx="340" cy="190" r="6" fill="url(#cluster7Gradient)" filter="url(#pointGlow)"/>
    <circle cx="310" cy="190" r="5" fill="url(#cluster7Gradient)" filter="url(#pointGlow)"/>
    <circle cx="330" cy="215" r="6" fill="url(#cluster7Gradient)" filter="url(#pointGlow)"/>
    <circle cx="300" cy="220" r="5" fill="url(#cluster7Gradient)" filter="url(#pointGlow)"/>
    <circle cx="350" cy="220" r="6" fill="url(#cluster7Gradient)" filter="url(#pointGlow)"/>
    <circle cx="315" cy="190" r="5" fill="url(#cluster7Gradient)" filter="url(#pointGlow)"/>
  </g>
</svg>

